<mxfile host="app.diagrams.net" agent="Mozilla/5.0 (Windows NT 10.0; Win64; x64) AppleWebKit/537.36 (KHTML, like Gecko) Chrome/123.0.0.0 Safari/537.36 OPR/109.0.0.0" version="24.7.6">
  <diagram name="Página-1" id="fedVl-R25nHnmDtVowMs">
    <mxGraphModel dx="986" dy="524" grid="1" gridSize="10" guides="1" tooltips="1" connect="1" arrows="1" fold="1" page="1" pageScale="1" pageWidth="827" pageHeight="1169" math="0" shadow="0">
      <root>
        <mxCell id="0" />
        <mxCell id="1" parent="0" />
        <mxCell id="vtzjSb8MOsv5JJrU3L7g-4" value="" style="edgeStyle=orthogonalEdgeStyle;rounded=0;orthogonalLoop=1;jettySize=auto;html=1;" parent="1" source="vtzjSb8MOsv5JJrU3L7g-1" target="vtzjSb8MOsv5JJrU3L7g-26" edge="1">
          <mxGeometry relative="1" as="geometry">
            <mxPoint x="170" y="130" as="targetPoint" />
          </mxGeometry>
        </mxCell>
        <mxCell id="vtzjSb8MOsv5JJrU3L7g-1" value="Leiloeiro" style="shape=umlActor;verticalLabelPosition=bottom;verticalAlign=top;html=1;outlineConnect=0;" parent="1" vertex="1">
          <mxGeometry x="40" y="100" width="30" height="60" as="geometry" />
        </mxCell>
        <mxCell id="vtzjSb8MOsv5JJrU3L7g-11" style="edgeStyle=orthogonalEdgeStyle;rounded=0;orthogonalLoop=1;jettySize=auto;html=1;" parent="1" source="vtzjSb8MOsv5JJrU3L7g-9" target="vtzjSb8MOsv5JJrU3L7g-28" edge="1">
          <mxGeometry relative="1" as="geometry">
            <mxPoint x="680" y="130" as="targetPoint" />
          </mxGeometry>
        </mxCell>
        <mxCell id="vtzjSb8MOsv5JJrU3L7g-32" style="edgeStyle=orthogonalEdgeStyle;rounded=0;orthogonalLoop=1;jettySize=auto;html=1;" parent="1" source="vtzjSb8MOsv5JJrU3L7g-9" target="vtzjSb8MOsv5JJrU3L7g-31" edge="1">
          <mxGeometry relative="1" as="geometry">
            <Array as="points">
              <mxPoint x="740" y="130" />
              <mxPoint x="740" y="285" />
            </Array>
          </mxGeometry>
        </mxCell>
        <mxCell id="vtzjSb8MOsv5JJrU3L7g-34" style="edgeStyle=orthogonalEdgeStyle;rounded=0;orthogonalLoop=1;jettySize=auto;html=1;" parent="1" source="vtzjSb8MOsv5JJrU3L7g-9" target="vtzjSb8MOsv5JJrU3L7g-33" edge="1">
          <mxGeometry relative="1" as="geometry">
            <Array as="points">
              <mxPoint x="740" y="130" />
              <mxPoint x="740" y="445" />
            </Array>
          </mxGeometry>
        </mxCell>
        <mxCell id="vtzjSb8MOsv5JJrU3L7g-23" value="Finalizar um leilão" style="ellipse;whiteSpace=wrap;html=1;" parent="1" vertex="1">
          <mxGeometry x="170" y="250" width="140" height="70" as="geometry" />
        </mxCell>
        <mxCell id="vtzjSb8MOsv5JJrU3L7g-26" value="Cria um leilão" style="ellipse;whiteSpace=wrap;html=1;" parent="1" vertex="1">
          <mxGeometry x="170" y="95" width="140" height="70" as="geometry" />
        </mxCell>
        <mxCell id="vtzjSb8MOsv5JJrU3L7g-28" value="Dar Lances" style="ellipse;whiteSpace=wrap;html=1;" parent="1" vertex="1">
          <mxGeometry x="550" y="95" width="140" height="70" as="geometry" />
        </mxCell>
        <mxCell id="vtzjSb8MOsv5JJrU3L7g-30" style="edgeStyle=orthogonalEdgeStyle;rounded=0;orthogonalLoop=1;jettySize=auto;html=1;entryX=-0.002;entryY=0.614;entryDx=0;entryDy=0;entryPerimeter=0;" parent="1" source="vtzjSb8MOsv5JJrU3L7g-1" target="vtzjSb8MOsv5JJrU3L7g-23" edge="1">
          <mxGeometry relative="1" as="geometry" />
        </mxCell>
        <mxCell id="vtzjSb8MOsv5JJrU3L7g-33" value="Pagar pelo Leilão" style="ellipse;whiteSpace=wrap;html=1;" parent="1" vertex="1">
          <mxGeometry x="550" y="400" width="140" height="70" as="geometry" />
        </mxCell>
        <mxCell id="vtzjSb8MOsv5JJrU3L7g-35" value="Pagar com Cartão de Crédito" style="ellipse;whiteSpace=wrap;html=1;" parent="1" vertex="1">
          <mxGeometry x="380" y="550" width="140" height="70" as="geometry" />
        </mxCell>
        <mxCell id="vtzjSb8MOsv5JJrU3L7g-36" value="Pagar com Boleto" style="ellipse;whiteSpace=wrap;html=1;" parent="1" vertex="1">
          <mxGeometry x="550" y="600" width="140" height="70" as="geometry" />
        </mxCell>
        <mxCell id="vtzjSb8MOsv5JJrU3L7g-37" value="Pagar com Pix" style="ellipse;whiteSpace=wrap;html=1;" parent="1" vertex="1">
          <mxGeometry x="720" y="550" width="140" height="70" as="geometry" />
        </mxCell>
        <mxCell id="vtzjSb8MOsv5JJrU3L7g-38" value="Extends" style="endArrow=block;endSize=16;endFill=0;html=1;rounded=0;" parent="1" source="vtzjSb8MOsv5JJrU3L7g-37" target="vtzjSb8MOsv5JJrU3L7g-33" edge="1">
          <mxGeometry width="160" relative="1" as="geometry">
            <mxPoint x="330" y="300" as="sourcePoint" />
            <mxPoint x="490" y="300" as="targetPoint" />
            <mxPoint as="offset" />
          </mxGeometry>
        </mxCell>
        <mxCell id="vtzjSb8MOsv5JJrU3L7g-39" value="Extends" style="endArrow=block;endSize=16;endFill=0;html=1;rounded=0;" parent="1" source="vtzjSb8MOsv5JJrU3L7g-35" target="vtzjSb8MOsv5JJrU3L7g-33" edge="1">
          <mxGeometry width="160" relative="1" as="geometry">
            <mxPoint x="439.5" y="280" as="sourcePoint" />
            <mxPoint x="439.5" y="210" as="targetPoint" />
            <mxPoint as="offset" />
          </mxGeometry>
        </mxCell>
        <mxCell id="vtzjSb8MOsv5JJrU3L7g-40" value="Extends" style="endArrow=block;endSize=16;endFill=0;html=1;rounded=0;" parent="1" source="vtzjSb8MOsv5JJrU3L7g-36" target="vtzjSb8MOsv5JJrU3L7g-33" edge="1">
          <mxGeometry width="160" relative="1" as="geometry">
            <mxPoint x="449.5" y="290" as="sourcePoint" />
            <mxPoint x="449.5" y="220" as="targetPoint" />
            <mxPoint as="offset" />
          </mxGeometry>
        </mxCell>
        <mxCell id="u7rEVofbayxQpqzi8UGx-3" value="" style="endArrow=open;endSize=12;dashed=1;html=1;rounded=0;" edge="1" parent="1" source="vtzjSb8MOsv5JJrU3L7g-33" target="vtzjSb8MOsv5JJrU3L7g-31">
          <mxGeometry width="160" relative="1" as="geometry">
            <mxPoint x="620" y="310" as="sourcePoint" />
            <mxPoint x="620" y="260" as="targetPoint" />
          </mxGeometry>
        </mxCell>
        <mxCell id="u7rEVofbayxQpqzi8UGx-5" value="depends on" style="edgeLabel;html=1;align=center;verticalAlign=middle;resizable=0;points=[];" vertex="1" connectable="0" parent="u7rEVofbayxQpqzi8UGx-3">
          <mxGeometry x="-0.1188" y="1" relative="1" as="geometry">
            <mxPoint as="offset" />
          </mxGeometry>
        </mxCell>
        <mxCell id="vtzjSb8MOsv5JJrU3L7g-31" value="Ganhar Leilão" style="ellipse;whiteSpace=wrap;html=1;" parent="1" vertex="1">
          <mxGeometry x="550" y="250" width="140" height="70" as="geometry" />
        </mxCell>
        <mxCell id="u7rEVofbayxQpqzi8UGx-7" value="depends on" style="endArrow=open;endSize=12;dashed=1;html=1;rounded=0;" edge="1" parent="1" source="vtzjSb8MOsv5JJrU3L7g-31" target="vtzjSb8MOsv5JJrU3L7g-28">
          <mxGeometry width="160" relative="1" as="geometry">
            <mxPoint x="460" y="370" as="sourcePoint" />
            <mxPoint x="620" y="370" as="targetPoint" />
          </mxGeometry>
        </mxCell>
        <mxCell id="u7rEVofbayxQpqzi8UGx-10" value="depends on" style="endArrow=open;endSize=12;dashed=1;html=1;rounded=0;" edge="1" parent="1" source="vtzjSb8MOsv5JJrU3L7g-23" target="vtzjSb8MOsv5JJrU3L7g-26">
          <mxGeometry width="160" relative="1" as="geometry">
            <mxPoint x="460" y="260" as="sourcePoint" />
            <mxPoint x="620" y="260" as="targetPoint" />
          </mxGeometry>
        </mxCell>
        <mxCell id="u7rEVofbayxQpqzi8UGx-11" value="depends on" style="endArrow=open;endSize=12;dashed=1;html=1;rounded=0;" edge="1" parent="1" source="vtzjSb8MOsv5JJrU3L7g-28" target="vtzjSb8MOsv5JJrU3L7g-26">
          <mxGeometry width="160" relative="1" as="geometry">
            <mxPoint x="250" y="260" as="sourcePoint" />
            <mxPoint x="250" y="175" as="targetPoint" />
          </mxGeometry>
        </mxCell>
        <mxCell id="vtzjSb8MOsv5JJrU3L7g-9" value="&lt;div&gt;Participante&lt;/div&gt;" style="shape=umlActor;verticalLabelPosition=bottom;verticalAlign=top;html=1;outlineConnect=0;" parent="1" vertex="1">
          <mxGeometry x="770" y="100" width="30" height="60" as="geometry" />
        </mxCell>
      </root>
    </mxGraphModel>
  </diagram>
</mxfile>
